<svg xmlns="http://www.w3.org/2000/svg" viewBox="0 0 164.34 140">
  <defs>
    <style>
      .cls-1,.cls-3{fill:#87733c}.cls-2{fill:#fff}.cls-3{stroke:#fff;stroke-miterlimit:10}
    </style>
  </defs>
  <g id="Layer_2" data-name="Layer 2">
    <g id="_ÎÓÈ_1" data-name="—ÎÓÈ_1">
      <path class="cls-1" d="M63.74 30.1l-.36-.1-.72-2.06-.82-2.01-.99-1.95-.81-2.03-.68-2.07.09-.4.33.22 1.02 1.94.78 2.03.79 2.03.8 2.03.89 1.99-.18.45-.14-.07zM64.97 33.14l-.3-.2-.45-1.1.17-.43.41.19.48 1.09-.19.43-.12.02zM66.83 37.6l-.32-.17-1.21-2.89.21-.41.45.14 1.17 2.9-.19.4-.11.03zM69.05 43.03l-.33-.22-.65-1.71-.73-1.67.2-.41.43.15.72 1.68.64 1.71-.14.44-.14.03zM70.57 46.64l-.32-.18-.78-1.86.2-.44.44.18.76 1.86-.18.42-.12.02zM58.97 18.67l-.3-.2-.9-2.22.16-.43.45.18.87 2.23-.15.42-.13.02zM57.38 14.77l-.3-.16-.76-1.83-.78-1.82.2-.42.44.16.77 1.82.72 1.84-.17.42-.12-.01zM103.63 126.42l-.33-.12-.74-2.05-.96-1.96-.86-2-.72-2.06-.83-2.02.12-.49.38.28.95 1.97.7 2.06.85 2.01.91 1.98.82 2.02-.14.47-.15-.09zM98.69 114.54l-.29-.18-.46-1.11.17-.42.42.18.46 1.1-.17.43h-.13zM97.58 111.88l-.31-.21-1.2-2.89.2-.41.4.16 1.2 2.89-.15.45-.14.01zM95.55 106.97l-.3-.19-.67-1.7-.73-1.68.17-.46.44.2.72 1.69.68 1.69-.18.44-.13.01zM93.41 101.8l-.28-.2-.78-1.86.17-.4.43.15.76 1.87-.17.44h-.13zM105.15 130.16l-.29-.23-.94-2.19.19-.42.4.17.94 2.2-.18.41-.12.06zM107.35 135.45l-.29-.21-.74-1.83-.75-1.83.15-.39.44.14.76 1.83.75 1.83-.21.41-.11.05zM44.58 44.89l-.24-.03-1.69-1.37-1.77-1.26-1.67-1.42-1.79-1.24-1.64-1.44-.11-.4.5-.11 1.72 1.33 1.72 1.34 1.7 1.36L43.03 43l1.7 1.36.03.34-.18.19zM47.12 46.85l-.2-.08-.94-.74-.08-.45.48-.06.93.75.06.43-.25.15zM50.97 49.81l-.21-.07-2.47-1.93-.09-.47.48-.04 2.49 1.91.08.47-.28.13zM55.59 53.33l-.19-.08-1.45-1.11-1.46-1.1-.05-.44.46-.1 1.43 1.14 1.46 1.1.07.48-.27.11zM58.72 55.75l-.19-.08-1.61-1.21-.06-.47.47-.07 1.58 1.25.07.44-.26.14zM34.69 37.28l-.19-.06-1.92-1.42-.06-.49.46-.03 1.92 1.42.05.48-.26.1zM31.37 34.79l-.2-.09-1.56-1.22-1.59-1.17-.06-.49.47-.05L30 32.98l1.56 1.21.06.43-.25.17zM127.01 108.43l-.16-.2-1.71-1.34-1.8-1.23-1.74-1.32-1.68-1.4-1.8-1.23v-.51l.42-.04 1.77 1.27 1.77 1.28 1.72 1.33 1.7 1.37 1.7 1.36.14.5-.33.16zM117.03 100.48l-.19-.06-.96-.72-.06-.47.46-.05.95.72.05.45-.25.13zM114.72 98.73l-.2-.07-2.47-1.93-.05-.44.45-.08 2.47 1.93.06.44-.26.15zM110.52 95.49l-.2-.07-1.46-1.09-1.46-1.11-.06-.5.47-.03 1.45 1.11 1.47 1.09.06.48-.27.12zM106.08 92.1l-.2-.08-1.58-1.25-.07-.43.45-.06 1.6 1.22.08.47-.28.13zM130.41 110.74l-.19-.07-1.9-1.44-.06-.45.45-.06 1.89 1.46.07.45-.26.11zM134.97 114.21l-.21-.01-1.55-1.23-1.58-1.19-.08-.48.47-.02 1.57 1.2 1.57 1.2.05.43-.24.1zM35.33 67.24l-.05.05-2.15-.37-2.15-.34-2.17-.22-2.16-.33-2.17-.19-.35-.43.45-.33 2.14.42 2.16.28 2.15.32 2.19.11 2.15.4.31.32-.35.31zM38.51 67.61l-.04.01-1.18-.17-.28-.35.36-.29 1.18.15.28.38-.32.27zM43.32 68.25l-.04-.02-3.11-.4-.3-.35.38-.27 3.11.4.31.37-.35.27zM49.09 68.98l-.04.05-1.81-.29-1.82-.18-.26-.38.35-.27 1.82.18 1.8.29.25.35-.29.25zM53.01 69.54l-.05.02-1.99-.27-.28-.39.37-.28 1.99.28.28.35-.32.29zM22.98 65.57l-.04-.02-2.38-.26-.3-.39.39-.29 2.37.31.3.38-.34.27zM18.83 65.01l-.04.02-1.96-.28-1.97-.19-.29-.41.39-.29 1.95.31 1.96.23.24.35-.28.26zM138.68 80.71l-.05.13-2.15-.36-2.17-.16-2.14-.47-2.18-.14-2.17-.21-.25-.47.34-.23 2.16.3 2.18.14 2.14.42 2.17.23 2.15.35.4.31-.43.16zM125.88 79.11l-.04.01-1.19-.15-.29-.37.38-.29 1.18.16.3.38-.34.26zM123 78.73l-.05.05-3.11-.42-.28-.39.37-.3 3.11.4.24.39-.28.27zM117.74 78.06l-.04-.01-1.81-.21-1.81-.29-.25-.33.33-.32 1.81.29 1.81.24.32.35-.36.28zM112.19 77.32l-.04-.01-2-.25-.27-.36.36-.27 2 .24.3.38-.35.27zM142.6 81.34l-.04-.02-2.37-.32-.3-.35.39-.29 2.36.35.29.34-.33.29zM148.3 82.1l-.05-.02-1.96-.26-1.96-.27-.31-.36.39-.25 1.97.22 1.96.25.26.39-.3.3zM28.42 95.29l-.38-.13.24-.48 2-.86 2.06-.73 2.01-.83 2.01-.85 1.99-.9.46.19-.24.35-1.96.95-2.01.84-2.03.8-2.01.84-2.03.79-.11.02zM40.34 90.38l-.28-.2.16-.42 1.11-.45.43.17-.19.41-1.1.49h-.13zM43.03 89.26l-.27-.2.16-.38 2.88-1.24.46.17-.21.42-2.9 1.2-.12.03zM47.93 87.27l-.33-.21.2-.44 1.7-.68 1.69-.68.43.13-.18.46-1.71.66-1.69.68-.11.08zM53.1 85.09l-.3-.18.18-.41 1.85-.81.43.2-.18.41-1.85.8-.13-.01zM24.76 96.85l-.29-.21.17-.43 2.21-.9.4.18-.15.43-2.21.91-.13.02zM19.46 99l-.28-.17.16-.39 1.82-.76 1.82-.79.4.2-.14.44-1.83.75-1.83.73-.12-.01zM124.72 55.4l-.29-.17.16-.44 2.02-.82 1.98-.9 2.05-.75 2.05-.75 1.94-1.02.49.26-.21.42-2.04.77-2.02.82-2 .86-2.02.83-2 .86-.11.03zM121.76 56.67l-.29-.21.16-.43 1.11-.45.42.18-.18.41-1.09.48-.13.02zM117.28 58.51l-.31-.18.19-.42 2.88-1.23.4.2-.13.44-2.92 1.15-.11.04zM111.9 60.76l-.34-.2.21-.46 1.71-.65 1.67-.74.43.19-.19.4-1.68.71-1.68.72-.13.03zM108.25 62.29l-.3-.23.16-.44 1.87-.77.45.18-.2.42-1.87.77-.11.07zM136.24 50.7l-.32-.22.2-.41 2.2-.93.44.16-.19.44-2.21.91-.12.05zM140.1 49.03l-.27-.17.15-.4 1.83-.76 1.82-.77.43.17-.19.42-1.81.81-1.83.74-.13-.04zM46.56 119.05l-.2-.15-.09-.48 1.29-1.75 1.42-1.65 1.33-1.73 1.34-1.72 1.21-1.82.49.04.15.45-1.39 1.68-1.38 1.68-1.32 1.74-1.3 1.75-1.32 1.74-.23.22zM54.42 108.73l-.19-.08-.06-.43.71-.96.47-.07.04.46-.7.96-.27.12zM56.19 106.39l-.19-.05-.07-.44 1.92-2.48.44-.06.05.44-1.87 2.51-.28.08zM59.41 102.25l-.21-.07-.07-.51 1.14-1.42 1.14-1.44.43-.08.03.44-1.11 1.45-1.11 1.46-.24.17zM62.82 97.78l-.2-.06-.04-.45 1.22-1.61.45-.07.04.45-1.21 1.61-.26.13zM44.15 122.11l-.19-.08-.07-.44 1.47-1.89.43-.05.07.43-1.45 1.9-.26.13zM40.65 126.7l-.21-.08-.03-.46 1.18-1.6 1.22-1.55.46-.08.07.49-1.22 1.55-1.22 1.56-.25.17zM110.02 36.3l-.19-.12-.11-.46 1.31-1.74 1.45-1.64 1.24-1.79 1.31-1.74 1.4-1.68.36-.01.05.33-1.24 1.79-1.29 1.76-1.34 1.71-1.42 1.67-1.24 1.79-.29.13zM108.06 38.81l-.2-.06-.06-.46.74-.94.44-.05.06.43-.72.96-.26.12zM105.11 42.65l-.2-.06-.08-.47 1.95-2.45.45-.09.04.47-1.91 2.48-.25.12zM101.57 47.3l-.21-.07-.05-.47 1.08-1.47 1.17-1.41.44-.09.03.44-1.11 1.46-1.1 1.46-.25.15zM99.16 50.42l-.21-.05-.04-.47 1.22-1.6.44-.05.08.45-1.24 1.58-.25.14zM117.6 26.39l-.21-.05-.03-.47 1.45-1.89.43-.05.07.43-1.45 1.9-.26.13zM120.15 23.07l-.19-.08-.07-.44 1.23-1.55 1.17-1.59.46-.06.08.47-1.21 1.56-1.19 1.58-.28.11zM74.09 130.41l-.04-.03-.27-.37.23-2.17.44-2.14.14-2.17.35-2.16.31-2.16.31-.34.17.41-.19 2.17-.27 2.16-.35 2.15-.23 2.17-.38 2.15-.22.33zM75.78 117.58l-.05-.02-.28-.35.15-1.19.37-.29.28.38-.15 1.18-.32.29zM76.16 114.72l-.05-.05-.26-.34.37-3.12.39-.28.31.38-.46 3.1-.3.31zM76.85 109.44l-.05.01-.25-.38.23-1.81.2-1.82.38-.26.27.35-.2 1.82-.28 1.8-.3.29zM77.58 103.92l-.04-.06-.3-.34.29-1.99.35-.27.29.35-.27 2-.32.31zM73.57 134.32l-.04-.05-.31-.34.36-2.37.35-.27.27.36-.29 2.36-.34.31zM72.82 139.98l-.04.02-.27-.37.26-1.97.22-1.96.39-.26.29.35-.23 1.96-.33 1.95-.29.28zM87.7 27.09l-.03-.16-.19-.26.28-2.16.16-2.17.32-2.16.23-2.17.36-2.15.32-.21.18.28-.16 2.17-.34 2.15-.22 2.17-.33 2.16-.29 2.16-.29.35zM87.28 30.19l-.05.03-.29-.38.16-1.19.38-.29.27.38-.14 1.19-.33.26zM86.64 35.03L86.6 35l-.25-.35.4-3.11.34-.26.28.34-.4 3.11-.33.3zM85.89 40.77l-.05.02-.31-.38.26-1.81.25-1.81.37-.3.23.38-.18 1.82-.26 1.81-.31.27zM85.37 44.69l-.04-.01-.29-.34.27-2 .36-.29.28.38-.25 1.99-.33.27zM89.32 14.68h-.04l-.26-.38.32-2.36.34-.28.27.36-.31 2.37-.32.29zM89.87 10.52l-.05.01-.29-.37.23-1.97.32-1.95.35-.27.32.36-.29 1.96-.26 1.96-.33.27zM74.89 22.33l-.3-.27-.37-2.8.26-.36.35.28.41 2.8-.3.35h-.05zM76.37 33.48l-.27-.2-.31-2.24-.4-2.22-.28-2.24-.27-2.25.32-.32.39.23.17 2.25.33 2.24.31 2.23.28 2.25-.23.35-.04-.08zM76.94 37.87l-.34-.28-.3-2.6.26-.36.39.28.34 2.59-.31.35-.04.02zM73.93 15.03l-.33-.29-.11-1.03.26-.36.38.28.13 1.02-.29.35-.04.03zM78.26 47.96l-.27-.36-.44-2.54-.29-2.56-.29-2.57.24-.3.3.23.46 2.54.28 2.57.37 2.55-.31.42-.05.02zM74.27 18l-.32-.28-.12-1.02.26-.38.37.29.12 1.03-.27.36h-.04zM88.68 127.04l-.33-.27-.35-2.8.27-.35.36.26.37 2.81-.28.36-.04-.01zM88.01 121.98l-.31-.28-.37-2.22-.17-2.26-.3-2.24-.35-2.23.29-.29.28.21.43 2.22.19 2.26.35 2.23.25 2.25-.25.3-.04.05zM86.61 111.29l-.35-.25-.34-2.59.31-.34.37.25.32 2.59-.26.39-.05-.05zM89.41 132.62l-.32-.3-.14-1.02.28-.36.36.27.14 1.03-.28.35-.04.03zM85.96 106.33l-.35-.23-.35-2.56-.23-2.57-.48-2.53.35-.4.3.31.42 2.54.33 2.56.4 2.55-.35.36-.04-.03zM89.07 130.02l-.32-.28-.15-1.03.29-.38.38.3.13 1.02-.29.38-.04-.01zM50.32 32.51l-.27-.1-1.71-2.25.06-.46.47.05 1.73 2.24-.1.45-.18.07zM57.21 41.48l-.27-.09-1.31-1.85-1.38-1.78-1.39-1.78-1.35-1.81-.03-.46.52.08 1.38 1.79 1.29 1.85 1.45 1.73 1.34 1.83-.05.45-.2.04zM59.85 44.93l-.28-.1-1.59-2.06.07-.49.46.08 1.6 2.06-.07.45-.19.06zM45.82 26.65l-.25-.12-.65-.81.06-.47.47.07.62.83-.05.45-.2.05zM66 52.91l-.29-.04-1.54-2.07-1.54-2.07-1.61-2.02.11-.42.43.01 1.56 2.05 1.61 2.02 1.48 2.11-.05.37-.16.06zM47.41 28.74l-.26-.14-.63-.81.06-.45.45.05.63.82-.06.45-.19.08zM114.61 116.34l-.26-.15-1.71-2.25.05-.46.44.08 1.73 2.23-.05.45-.2.1zM110.87 112.27l-.25-.15-1.43-1.74-1.31-1.85-1.39-1.78-1.37-1.79.01-.5.52.09 1.3 1.85 1.48 1.71 1.32 1.83 1.36 1.81-.03.46-.21.06zM104.95 103.74l-.25-.16-1.61-2.04.07-.47.45.07 1.59 2.06-.04.47-.21.07zM118.02 120.76l-.27-.13-.62-.82.06-.45.46.05.63.82-.06.46-.2.07zM101.91 100.63l-.3-.05-1.49-2.1-1.6-2.03-1.55-2.06.07-.39h.44l1.55 2.06 1.59 2.03 1.56 2.05-.04.5-.23-.01zM116.43 118.68l-.25-.13-.63-.81.06-.45.46.05.62.82-.06.46-.2.06zM34.12 53.63l-.11-.04-2.63-1.04-.18-.45.44-.18 2.6 1.11.16.39-.28.21zM44.58 57.97l-.15.04-2.06-.93-2.08-.89-2.13-.76-2.08-.88-.1-.47.41-.28 2.05.94 2.08.88 2.07.9 2.14.76.17.49-.32.2zM48.59 59.65l-.13-.05-2.41-1.01-.16-.41.42-.21 2.39 1.04.2.42-.31.22zM27.29 50.81l-.12-.03-.95-.41-.19-.42.44-.17.94.41.18.41-.3.21zM57.93 63.49l-.1-.08-2.43-.87-2.36-1.05-2.36-1.03-.23-.39.46-.16 2.37 1 2.41.91 2.36 1.04.18.43-.3.2zM29.7 51.81l-.12-.04-.95-.4-.18-.41.42-.17.95.4.2.42-.32.2zM131.69 94.05l-.12-.02-2.62-1.08-.16-.43.43-.2 2.6 1.09.2.45-.33.19zM126.97 92.01l-.09-.01-2.11-.8-2.06-.93-2.13-.77-2.07-.91-.26-.43.51-.17 2.06.93 2.1.83 2.1.83 2.09.85.13.45-.27.13zM117.03 87.96l-.11-.03-2.42-1-.18-.4.43-.2 2.41 1.01.2.44-.33.18zM136.87 96.19l-.13-.02-.95-.4-.17-.42.42-.18.95.39.19.43-.31.2zM112.43 86.04l-.15.07-2.39-.98-2.34-1.08-2.38-1.01-.23-.4.45-.13 2.38 1.01 2.4.93 2.38 1 .17.41-.29.18zM134.46 95.19l-.13-.02-.95-.39-.17-.43.42-.18.95.41.17.41-.29.2zM27.85 80.36l-.33-.27.28-.37 2.81-.36.35.28-.27.36-2.8.39-.04-.03zM32.91 79.72l-.33-.29.29-.42 2.25-.19 2.22-.41 2.25-.21 2.25-.25.36.21-.28.43-2.25.19-2.23.37-2.24.29-2.24.27-.05.01zM43.58 78.32l-.31-.3.27-.35 2.59-.33.35.26-.26.39-2.6.28-.04.05zM22.3 81.12l-.31-.3.27-.35 1.02-.16.38.29-.3.36-1.02.15-.04.01zM48.52 77.7l-.36-.32.33-.32 2.54-.43 2.56-.35 2.56-.33.42.32-.33.38-2.55.37-2.56.36-2.57.21-.04.11zM24.89 80.78l-.32-.3.27-.36 1.02-.15.36.3-.27.36-1.02.14-.04.01zM132.56 66.59l-.3-.28.25-.38 2.81-.33.35.26-.27.37-2.8.36h-.04zM121.33 68.12l-.38-.33.34-.4 2.24-.29 2.24-.26 2.23-.35 2.25-.27.42.3-.34.33-2.23.32-2.25.24-2.22.41-2.26.17-.04.13zM117.03 68.66l-.33-.31.3-.34 2.58-.35.39.26-.3.4-2.59.32-.05.02zM139.88 65.64l-.32-.3.28-.36 1.03-.15.35.3-.27.37-1.02.12-.05.02zM107.01 69.89l-.39-.21.35-.36 2.55-.36 2.56-.31 2.56-.31.4.23-.31.42-2.57.21-2.54.49-2.57.25-.04-.05zM137.3 65.97l-.33-.29.28-.37 1.03-.12.38.27-.29.37-1.03.13-.04.01zM38.59 106.3l-.25-.13.05-.45 2.23-1.74.45.1-.02.46-2.25 1.71-.21.05zM42.64 103.25l-.26-.18.04-.49 1.82-1.34 1.78-1.38 1.84-1.31 1.78-1.4.39.05-.07.37-1.75 1.42-1.8 1.37-1.78 1.39-1.74 1.44-.25.06zM51.18 96.67l-.27-.15.06-.48 2.09-1.56.45.05-.05.47-2.06 1.6-.22.07zM34.15 109.7l-.27-.11.07-.46.82-.62.46.05-.06.47-.82.63-.2.04zM55.13 93.56l-.24-.09.07-.41 1.99-1.64 2.08-1.53 2.08-1.53.43.01-.05.49-2.09 1.51-2.05 1.57-1.99 1.63-.23-.01zM36.22 108.11l-.25-.12.05-.45.82-.62.45.06-.05.46-.82.63-.2.04zM122.38 42.03l-.25-.15.04-.45 2.24-1.74.45.09-.05.44-2.25 1.71-.18.1zM113.4 48.96l-.25-.19.05-.45 1.75-1.42 1.87-1.28 1.71-1.49 1.8-1.35.5.1-.07.46-1.76 1.41-1.85 1.3-1.75 1.42-1.77 1.41-.23.08zM109.96 51.55l-.26-.13.05-.47 2.09-1.56.46.03-.07.47-2.07 1.6-.2.06zM128.24 37.52l-.25-.14.05-.45.81-.64.47.07-.06.47-.83.61-.19.08zM101.94 57.74l-.29-.15.05-.52 2.05-1.57 2.07-1.53 2.04-1.58.45.09-.01.47-2.05 1.57-2.05 1.56-2.09 1.53-.17.13zM126.17 39.1l-.26-.12.07-.45.82-.63.46.04-.07.47-.82.63-.2.06zM60.85 123.37l-.11-.03-.18-.4 1.07-2.61.43-.17.18.42-1.11 2.6-.28.19zM62.81 118.7l-.15.01-.23-.52 1.01-2.03.78-2.12.84-2.1.83-2.1.49-.11.26.42-.99 2.04-.88 2.08-.82 2.1-.82 2.11-.32.22zM66.93 108.7l-.12-.01-.19-.41.98-2.42.45-.17.15.42-.99 2.41-.28.18zM58.71 128.56l-.12-.03-.19-.42.42-.95.42-.19.16.43-.37.97-.32.19zM68.84 104.13l-.11-.07-.23-.4 1.08-2.34.87-2.43 1.04-2.36.42-.15.13.37-.91 2.42-1.04 2.36-1.02 2.37-.23.23zM59.71 126.15l-.12-.03-.19-.42.39-.96.44-.16.19.42-.42.95-.29.2zM101.27 25.81l-.12-.01-.18-.43 1.08-2.61.43-.17.19.43-1.12 2.59-.28.2zM96.94 36.32l-.1-.14-.24-.37.86-2.09.88-2.08.94-2.05.82-2.11.41-.15.25.42-.95 2.05-.84 2.1-.88 2.08-.85 2.09-.3.25zM95.28 40.3l-.12-.05-.2-.43L96 37.43l.41-.21.19.46-1.01 2.41-.31.21zM104.1 19l-.12-.05-.17-.41.38-.95.43-.18.16.42-.37.97-.31.2zM91.41 49.55l-.15.11-.08-.46.91-2.41 1.02-2.37.94-2.4.42-.1.15.33-.92 2.41-.94 2.4-1.11 2.34-.24.15zM103.1 21.41l-.12-.04-.2-.43.41-.94.43-.17.19.42-.41.95-.3.21zM81.18 22.3l-.06-.35v-2l-.29-2 .35-.34.94.34v2l-.62 2-.32.35zM81.18 26.07l-.06-.31v-1.87l.06-.31.94.31v1.87l-.94.31zM81.18 28.82l-.06-.34v-1.25l.06-.34.94.34v1.25l-.94.34zM81.18 41.27l-.3-.39-.04-2.06-.09-2.06.13-2.06-.05-2.06.08-2.07.27-.22.31.22-.37 2.06v2.06l1 2.07v2.06l-.54 2.06-.4.39zM81.18 44.48l-.06-.32v-1.34l.06-.32.94.32v1.34l-.94.32zM81.6 46.8l-.31-.33-.03-1.03.34-.33.33.33.01 1.03-.34.33zM81.18 128.31l-1.06-.31 1-2v-2l.06-.29.94.29v2l-.63 2-.31.31zM81.18 122.37l-.06-.31v-1.87l.06-.31.94.31v1.87l-.94.31zM81.18 119.06l-.06-.34v-1.25l.06-.34.94.34v1.25l-.94.34zM81.18 115.72l-.41-.34.19-2.07-.84-2.06 1-2.06v-2.06l-.21-2.06.27-.23.94.23v2.06l-.51 2.06-.49 2.06v2.06l.44 2.07-.38.34zM81.18 103.44l-.06-.31v-1.34l.06-.34.94.34v1.34l-.94.31zM80.8 100.84l-.31-.34-.02-1.02.33-.33.32.33.02 1.02-.34.34zM68.4 23.99l-.29-.22-.55-1.93-.49-1.94.21-.38.35.23.59 1.92.52 1.93-.27.37-.07.02zM69.38 27.71l-.3-.26-.49-1.81.23-.39.39.23.51 1.8-.25.42-.09.01zM70.09 30.31l-.32-.23-.31-1.21.22-.39.38.23.33 1.2-.22.39-.08.01zM73.3 42.29l-.36-.22-.52-1.99-.52-2-.51-1.99-.5-2.01-.63-1.96.3-.36.47.15.35 2.04.53 1.99.55 1.99.61 1.97.48 2.01-.17.36-.08.02zM74.15 45.45l-.33-.22-.34-1.3.24-.4.41.23.33 1.3-.23.4-.08-.01zM74.74 47.69l-.3-.24-.27-.99.22-.39.4.23.27.98-.23.4-.09.01zM95.84 126.45l-.31-.24-.49-1.94-.52-1.93.21-.37.43.19.45 1.96.52 1.93-.21.35-.08.05zM94.31 121l-.33-.24-.45-1.82.21-.38.4.22.47 1.81-.21.41h-.09zM93.44 117.49l-.31-.25-.31-1.21.21-.41.39.25.35 1.2-.24.39-.09.03zM92.58 114.22l-.39-.19-.47-2-.44-2.02-.62-1.96-.62-1.97-.37-2.04.14-.46.49.29.49 2 .55 1.99.49 2 .51 2 .48 2.01-.14.46-.1-.11zM89.41 102.42l-.3-.24-.38-1.29.25-.39.4.22.33 1.3-.22.38-.08.02zM88.73 99.91l-.3-.26-.28-.99.23-.41.4.24.25 1-.22.38-.08.04zM56.09 29.15l-.25-.22-1.03-1.71-.98-1.74.1-.44.44.12 1 1.74 1.03 1.71-.17.43-.14.11zM57.99 32.41l-.27-.17-.95-1.61.14-.44.44.11.94 1.61-.12.47-.18.03zM59.36 34.76l-.3-.15-.6-1.09.1-.46.45.14.62 1.08-.12.43-.15.05zM65.48 45.48l-.33-.11-.94-1.84-1-1.8-1.09-1.75-.99-1.81-1.01-1.8v-.46l.48.18.96 1.83 1.15 1.71.95 1.83 1.12 1.74.94 1.84-.05.48-.19-.04zM67.2 48.34l-.28-.16-.67-1.16.12-.43.43.11.68 1.16-.13.43-.15.05zM68.35 50.33l-.28-.15-.51-.88.11-.46.44.13.52.89-.11.45-.17.02zM109.12 120.92l-.27-.14-1.02-1.72-.97-1.75.1-.41.46.08 1 1.74.95 1.76-.1.42-.15.02zM106.15 115.82l-.29-.17-.93-1.62.12-.45.46.11.92 1.63-.11.46-.17.04zM104.48 112.92l-.29-.17-.61-1.08.11-.44.44.11.62 1.09-.11.45-.16.04zM102.8 110.06l-.26-.21-1.07-1.77-.99-1.8-1.01-1.8-1.01-1.8-1.17-1.7.19-.51.45.14 1.04 1.77 1.03 1.79 1.03 1.78 1.04 1.79.97 1.82-.1.36-.14.14zM96.68 99.43l-.27-.19-.67-1.15.1-.45.44.13.67 1.16-.1.45-.17.05zM95.37 97.16l-.3-.17-.49-.9.12-.43.43.11.53.88-.13.45-.16.06zM44.87 37.2l-.21-.09-1.44-1.39-1.39-1.44-.02-.44.48-.03 1.37 1.46 1.46 1.38.01.5-.26.05zM47.69 39.9l-.25-.1-1.32-1.32.01-.48.48-.01 1.3 1.35.02.46-.24.1zM49.72 42.25l-.23-.08-.37-.89V41h-.06l1.06.71v.45l-.4.09zM58.91 50.58l-.26-.04-1.44-1.48-1.47-1.43-1.44-1.48-1.48-1.44-1.38-1.54-.04-.4.43.01 1.45 1.46 1.52 1.39 1.37 1.55 1.53 1.39 1.42 1.5-.01.41-.2.1zM61.23 52.92l-.24-.08-.95-.95.02-.46.46-.01.94.95.01.47-.24.08zM62.44 54.98l-.23-.09-1.09-.73V54h.83l.17.42v.47l.32.09zM120.19 112.21l-.23-.09-1.39-1.44-1.45-1.39v-.48l.46.02 1.44 1.39 1.39 1.44.02.46-.24.09zM115.89 108.91l-.24-.11-1.31-1.33-.01-.47.47.01 1.32 1.32-.01.46-.22.12zM113.89 105.63l-.24-.07-.87-.89.01-.45.46-.02.87.89v.46l-.23.08zM111.59 103.36l-.26-.14-1.47-1.45-1.44-1.48-1.47-1.43-1.45-1.48-1.45-1.46.06-.44.4-.02 1.44 1.47 1.44 1.47 1.45 1.46 1.57 1.35 1.41 1.51-.06.41-.17.23zM102.88 95.5l-.23-.09-.95-.94.01-.47h.45l.96.94-.01.47-.23.09zM100.89 92.75l-.22-.08-.74-.72.02-.45.46-.02.71.73v.45l-.23.09zM37.42 47.83l-.17-.08-1.74-.98-1.72-1.04-.14-.44.46-.11 1.75.97 1.7 1.06.13.41-.27.21zM40.71 49.71l-.17-.05-1.6-.97-.11-.41.43-.14 1.61.95.12.43-.28.19zM43.07 51.04l-.16-.03-1.09-.62-.1-.44.43-.13 1.08.63.11.43-.27.16zM53.81 57.26l-.14-.09-1.78-1.04-1.77-1.06-1.79-1.01-1.81-1.01-1.83-.95-.14-.52.46-.02 1.79 1.01 1.8 1.01 1.76 1.08 1.82.96 1.82.98.03.46-.22.2zM56.65 58.91l-.17-.05-1.15-.69-.11-.43.44-.13 1.16.67.11.45-.28.18zM58.65 60.05l-.16-.06-.9-.49-.11-.45.44-.12.9.49.11.46-.28.17zM129.26 100.84l-.16-.09-1.72-1.01-1.77-.95-.09-.46.42-.1 1.74.99 1.74.98.08.43-.24.21zM124.11 97.84l-.15-.05-1.63-.92-.11-.45.44-.13 1.61.95.12.44-.28.16zM121.22 96.17l-.16-.05-1.09-.61-.1-.45.43-.13 1.08.63.13.46-.29.15zM118.32 94.47l-.15-.02-1.81-.99-1.79-1.02-1.73-1.13-1.83-.96-1.76-1.08-.09-.38.45-.23 1.73 1.12 1.79 1.01 1.78 1.05 1.77 1.06 1.82.97.04.43-.22.17zM107.72 88.37l-.16-.04-1.17-.67-.12-.44.45-.12 1.17.66.1.45-.27.16zM105.45 87.07l-.16-.06-.89-.5-.13-.45.46-.13.87.54.13.44-.28.16zM32.32 60.07l-.07-.03-1.94-.51-1.93-.51-.27-.38.42-.2 1.94.5 1.94.49.18.41-.27.23zM36 61.1l-.08-.05-1.82-.45-.23-.42.4-.2 1.81.48.22.37-.3.27zM38.63 61.79l-.09-.02-1.2-.33-.22-.39.38-.22 1.21.32.24.4-.32.24zM50.6 65.03l-.07-.08-2.02-.45-1.96-.61-1.98-.6-2.03-.38-1.98-.57-.17-.41.32-.16 1.99.55 2.01.42 1.99.54 2 .54 1.98.57.17.34-.25.3zM53.77 66h-.08l-1.29-.36-.23-.39.39-.23 1.3.34.21.4-.3.24zM56 66.45l-.09-.01-.98-.27-.24-.41.41-.23.98.28.22.38-.3.26zM134.75 87.57l-.07-.07-1.95-.46-1.92-.58-.22-.36.39-.26 1.93.53 1.94.49.24.45-.34.26zM129.02 85.99l-.09.01-1.81-.48-.21-.41.38-.22 1.81.48.24.4-.32.22zM125.79 85.14h-.09l-1.21-.32-.21-.41.39-.24 1.21.32.24.41-.33.24zM122.56 84.23l-.1.09-1.98-.58-1.98-.54-1.97-.62-1.99-.54-2.03-.41-.17-.42.33-.17 1.99.53 2.02.42 1.98.58 2 .49 2.01.49.12.46-.23.22zM110.73 81.09h-.08l-1.3-.33-.22-.41.39-.22 1.3.31.23.42-.32.23zM108.2 80.43l-.09-.02-.98-.27-.22-.39.38-.23.99.28.24.39-.32.24zM30.58 74h-2l-2-.28-.31-.32.31-.4 2 1h2l.3-.6-.3.6zM34.39 74h-1.87l-.33-.6.33-.4h1.87l.31.4-.31.6zM37.11 74h-1.25l-.34-.6.34-.4h1.25l.34.4-.34.6zM49.51 73.81l-2.06-.14-2.06.33h-2.06l-2.06-.35-2.07.06-.24-.31.24-.31 2.06-.1 2.06.19 2.06-.18h2.07l2.06-.02.39.42-.39.41zM52.79 73.64l-1.34.03-.32-.34.32-.33 1.34.01.33.32-.33.31zM55.1 74h-1.03l-.31-.6.31-.4h1.03l.31.4-.31.6zM136.63 73.75l-2 .25h-2l-.37-.6.37-.4h2l2 .09.36.31-.36.35zM130.69 73.66l-1.87-.04-.31-.3.31-.32 1.87-.02.34.34-.34.34zM127.35 73.29l-1.25.02-.34-.34.34-.34 1.25.03.34.31-.34.32zM124 73l-2.06 1h-2.05l-2.07-.29-2.06-.07-2.06.15-.35-.39.35-.4h2.06l2.06 1h2.06l2.06-1H124l.42.4-.42-.4zM111.76 73.67l-1.34-.03-.34-.31.34-.33h1.34l.32.33-.32.34zM109.13 74h-1.02l-.34-.6.34-.4h1.02l.32.4-.32.6zM28.45 87.57l-.34-.26.26-.39 1.92-.57 1.94-.52.36.28-.19.37-1.92.55-1.94.5-.09.04zM34.19 86l-.31-.24.23-.39 1.8-.51.39.25-.22.41-1.81.45-.08.03zM37.42 85.14l-.33-.24.25-.39 1.2-.34.38.24-.22.38-1.2.34-.08.01zM40.65 84.33l-.27-.31.18-.38 2-.53 1.96-.62 2-.51 1.98-.57 2.03-.4.47.16-.33.35-1.98.58-1.98.56-1.97.61-2.04.37-1.96.67-.09.02zM52.48 81.1l-.31-.24.23-.39 1.29-.34.41.21-.24.42-1.29.35-.09-.01zM55.01 80.43l-.31-.25.23-.39.98-.28.42.24-.24.4-1 .25-.08.03zM130.89 60.12l-.29-.28.21-.35 1.94-.51 1.93-.53.41.19-.26.39-1.92.55-1.94.48-.08.06zM127.21 61.06l-.32-.22.23-.42 1.82-.45.4.21-.24.38-1.81.49-.08.01zM124.58 61.79l-.32-.24.24-.42 1.2-.32.41.24-.24.39-1.21.32-.08.03zM112.6 64.91l-.29-.16.19-.45 2.03-.42 1.95-.67 2.03-.39 1.98-.59 1.98-.57.33.28-.13.46-2.03.4-1.97.61-1.98.55-1.99.54-2 .51-.1-.1zM109.44 65.84l-.3-.24.21-.39 1.29-.37.41.25-.24.38-1.29.36-.08.01zM107.21 66.45l-.33-.25.24-.42.99-.25.41.23-.24.41-.99.25-.08.03zM33.95 100.8l-.3-.14.12-.48 1.73-1.01 1.74-1 .49.14-.14.48-1.72 1.01-1.74 1h-.18zM39.09 97.85l-.27-.18.12-.42 1.62-.94.45.1-.13.46-1.63.93-.16.05zM41.99 96.18l-.28-.17.12-.43 1.07-.65.46.12-.13.45-1.08.63-.16.05zM44.88 94.55l-.29-.21.08-.53 1.82-.98 1.78-1.02 1.81-.99 1.81-.99 1.79-1.03.39.07-.13.38-1.78 1.03-1.75 1.1-1.81.99-1.81.99-1.71 1.15-.2.04zM55.49 88.37l-.29-.15.14-.44 1.15-.67.46.1-.13.47-1.16.66-.17.03zM57.76 87.06l-.28-.16.12-.44.88-.52.45.13-.11.45-.9.49-.16.05zM125.79 47.78l-.26-.17.08-.46 1.77-.93 1.72-1.03.41.12-.09.44-1.74.98-1.74 1-.15.05zM122.49 49.68l-.3-.14.15-.44 1.6-.97.45.14-.11.45-1.63.92-.16.04zM120.14 51.05l-.28-.16.11-.46 1.09-.6.43.11-.11.44-1.08.63-.16.04zM109.4 57.32l-.25-.25.1-.4 1.77-1.05 1.8-1.01 1.74-1.1 1.85-.92 1.72-1.16.49.17-.14.45-1.74 1.09-1.82.97-1.79 1.03-1.74 1.11-1.86.91-.13.16zM106.56 58.89l-.27-.17.1-.45 1.17-.64.43.11-.11.44-1.16.67-.16.04zM104.56 60.06l-.27-.18.11-.43.88-.52.45.12-.12.43-.89.52-.16.06zM42.06 112.18l-.25-.04.03-.49 1.42-1.4 1.43-1.4.43-.02v.45l-1.39 1.44-1.46 1.37-.21.09zM46.89 108.01l-.21-.11-.02-.46 1.34-1.3.44-.01.02.47-1.34 1.31-.23.1zM49 106.43l-.23-.08.01-.46.87-.89h.47v.47l-.89.88-.23.08zM51.32 103.23l-.2-.08v-.39l1.47-1.44 1.35-1.56 1.56-1.36 1.37-1.54 1.48-1.44.43.07.01.36-1.42 1.49-1.49 1.43-1.4 1.51-1.51 1.41-1.42 1.51-.23.03zM59.94 95.49l-.24-.07.02-.47.94-.95h.46l.01.46-.96.94-.23.09zM61.72 92.76l-.6-.08v-.48l1.1-.7-.1-.02v.47l-.17.72-.23.09zM117.35 37.23l-.23-.1v-.47l1.41-1.42 1.4-1.42.49.01.01.49-1.45 1.38-1.38 1.45-.25.08zM114.99 39.87l-.22-.09-.01-.45 1.32-1.33.46.01.02.47-1.33 1.32-.24.07zM112.64 41.83l-.52-.08v-.47l1.19-.87-.19-.02v.47l-.25.88-.23.09zM104.3 50.62l-.29-.05.07-.51 1.48-1.43 1.39-1.53 1.48-1.43 1.42-1.5 1.5-1.41.43.04.03.42-1.44 1.46-1.49 1.43-1.39 1.52-1.5 1.42-1.51 1.41-.18.16zM101.34 52.93l-.22-.11-.01-.45.94-.96.46.02.01.45-.95.94-.23.11zM99.93 54.98l.19-.1v-.45l.3-.43h.7v.16l-.95.74-.24.08zM54.09 120.95l-.18-.02-.11-.47.97-1.75 1.03-1.72.44-.09.13.42-.99 1.74-1.02 1.72-.27.17zM57.06 115.81l-.15-.06-.13-.43.94-1.62.44-.12.1.44-.94 1.62-.26.17zM58.73 112.92l-.16-.06-.13-.44.63-1.08.45-.12.13.46-.65 1.07-.27.17zM60.4 110.05l-.12-.15-.23-.41 1.16-1.71.9-1.86 1.17-1.7.89-1.87 1.18-1.7.41-.23.13.54-1.05 1.77-1.07 1.77-1.06 1.76-.94 1.84-1.04 1.78-.33.17zM66.53 99.41l-.17-.04-.12-.45.66-1.16.46-.12.11.44-.67 1.17-.27.16zM67.84 97.14l-.17-.03-.11-.45.52-.89.43-.12.13.45-.52.88-.28.16zM107.11 29.14l-.15-.08-.16-.46 1.01-1.72 1-1.73.47-.1.15.45-1.04 1.71-.97 1.75-.31.18zM105.21 32.43l-.17-.05-.12-.47.95-1.61.45-.13.1.45-.94 1.62-.27.19zM103.85 34.78l-.16-.05-.11-.45.63-1.08.44-.14.11.46-.63 1.08-.28.18zM97.65 45.53l-.16-.07-.2-.49 1.1-1.74 1.06-1.77.93-1.84 1.19-1.7.98-1.81.39-.08.17.4-1.12 1.73-.91 1.86-1.07 1.75-1.1 1.75-1.05 1.78-.21.23zM96.01 48.34l-.16-.04-.13-.45.68-1.15.45-.13.1.45-.65 1.17-.29.15zM94.86 50.33l-.17-.03-.1-.44.49-.9.45-.1.12.43-.5.9-.29.14zM67.36 127h-.08l-.27-.39.53-1.93.51-1.93.44-.24.24.42-.57 1.92-.48 1.94-.32.21zM68.9 120.7l-.09.01-.21-.4.47-1.81.4-.25.24.42-.51 1.8-.3.23zM69.76 117.5l-.08-.02-.22-.4.32-1.21.4-.25.22.42-.32 1.21-.32.25zM70.63 114.23l-.1.07-.29-.47.59-1.98.51-1.99.62-1.97.51-2 .55-1.99.36-.22.33.41-.6 1.97-.48 2-.57 1.98-.65 1.97-.54 1.99-.24.23zM73.8 102.44l-.08-.03-.25-.4.37-1.29.39-.22.24.39-.35 1.3-.32.25zM74.48 99.89l-.09-.01-.24-.4.27-.99.41-.23.23.4-.28.99-.3.24zM94.81 24l-.09.01-.19-.39.49-1.94.5-1.94.41-.22.21.38-.5 1.94-.51 1.94-.32.22zM93.82 27.69l-.07-.03-.25-.38.49-1.8.41-.26.21.42-.47 1.81-.32.24zM93.12 30.3l-.09.02-.21-.41.32-1.2.39-.23.25.4-.33 1.2-.33.22zM89.91 42.34l-.08-.08-.19-.36.49-2 .55-1.99.43-2.02.55-1.98.68-1.96.31-.19.16.32-.5 2-.58 1.98-.38 2.03-.67 1.95-.5 2.01-.27.29zM89.06 45.46l-.09.01-.22-.41.34-1.3.4-.23.23.4-.35 1.3-.31.23zM88.46 47.71l-.08-.03-.24-.4.27-.98.4-.23.24.4-.26.99-.33.25z"/>
      <path class="cls-1" d="M61 112H45.12V99.68s14.06.94 14.06-14.06c0 0 2.15-12.46-14.06-14.5C21.07 68.08 1.7 52.91 0 48h50.12v-2h8v-4h91v6h-2v5.28s-40.41 3.94-40.41 26.5a21 21 0 0013.41 19.87V112H105s-2-7.7-21.35-7.7S61 112 61 112z"/>
      <path class="cls-2" d="M4.88 50.84A71.63 71.63 0 0024.3 63.13a71.65 71.65 0 0024.06 5.62 113.83 113.83 0 01-26-8.11 112.78 112.78 0 01-17.48-9.8zM58 95.65a17.37 17.37 0 00.33-20.78 14 14 0 014.48 8.29c.96 7.13-4.37 12.06-4.81 12.49zM80.14 102.27a46.12 46.12 0 017.09 0 32.75 32.75 0 0110.82 2.27 28.25 28.25 0 016.15 3.54 25 25 0 00-12.5-6.41 24.7 24.7 0 00-11.56.6zM58.12 45h14.74l-14.74-1.11V45zM50.12 48h2.6l-2.6-.63V48zM147.12 48H144a2.87 2.87 0 00-1.41 0 8.31 8.31 0 01-2.4.42c-.61 0-2 .07-2.61 0s-3.34 0-3.34 0l3.81.37 4.81-.16 1.37-.17c.1 0 .75.45 1 .33a4.58 4.58 0 011.32.1l.22.27.23.32.12.68zM103.66 77.61A30.54 30.54 0 01111 65.05a33.2 33.2 0 0110.55-7 45.3 45.3 0 0115-4 47.27 47.27 0 00-17 3.81c-3.81 1.65-7.42 3.22-10.63 7a23.24 23.24 0 00-5.26 12.75zM58.12 45v25.43s-.43-12.34-.48-12.51.14-4.42 0-4.55a11.37 11.37 0 010-2.18s-.51-2-.51-2.41v-2.27l-.38-.89-.34-.62zM50.12 48v20.22l-.58-7a35.65 35.65 0 010-3.87c.13-.18-.06-6.78-.06-6.78s-.26-1.64-.26-1.78-1-.75-1-.75zM45.46 99l14.66-1v13.42l1-7.51V98.7a26.54 26.54 0 0115.3-5.55s-12.35.94-16 5l-2.11.46a12.6 12.6 0 01-1.4-.06c-.2-.07-2.07.26-2.07-.57h-1.07l-2.54 1z"/>
      <path class="cls-2" d="M120.26 99l-15.14-1v13.42l-1-7.51V98.7c.35 0-5-5-14.82-5.55 0 0 12.35.94 16 5l2.11.46a12.6 12.6 0 001.4-.06c.2-.07 2.07.26 2.07-.57H112l2.54 1z"/>
      <path class="cls-2" d="M106.12 107.15v3.76l.09.2 5.08.16 3.59-.16-2.14-.11H111s-1.61-.31-1.68-.31-.93.11-1 .11-1.25-.27-1.25-.27-.18-.6-.22-.69a10.93 10.93 0 01-.11-1.25c0-.06-.27-1.8-.32-1.94s-.22-3.11-.22-3.11zM46.12 107.15v3.76l.09.2 5.08.16 3.59-.16-2.14-.11H51s-1.61-.31-1.68-.31-.93.11-1 .11-1.25-.27-1.25-.27-.18-.6-.22-.69a10.93 10.93 0 01-.11-1.25c0-.06-.27-1.8-.32-1.94s-.22-3.11-.22-3.11z"/>
      <rect class="cls-1" x="25.66" y="61.94" width="114.93" height="13.11" rx="2.17" transform="rotate(89.54 83.121 68.498)"/>
      <path class="cls-2" d="M87.12 17.88l1 60v7.76c-.3 0-.5 5.8-.57 6s.75 1.88.55 3 .25 6.28.06 7.18.08 5 0 5.88 1.16 6.28.6 7.26a41.51 41.51 0 00-2 5.25c-.08.41-2.42 3.45-2.91 3.45s-3.42 1.09-4 0a12.53 12.53 0 01-1.58-2.84c-.17-.9-.42-2.37-.68-3.67s.2-5.15 0-5.72-.59-11.08-.17-11.73a26.13 26.13 0 00.91-7c-.18-1.22-.63-6.77-.64-8.16s.69-5.15.42-7.84-1.06-29.58-1.35-30.4a49 49 0 01-.06-7.75c.12-.74.77-11 .68-12.17a36.52 36.52 0 01.11-5.38c.16-.49.55-3.44.55-3.44s2.92-2.39 3.25-2 6.71 2.32 5.83 2.32z"/>
      <path class="cls-1" d="M81 124.65a12.82 12.82 0 01-.58-2 6.56 6.56 0 001.76 1.66c.1.07.06-.58-.12-.7a5.14 5.14 0 01-1.82-2c-.11-.71-.16-1.43-.2-2.16a22.18 22.18 0 001.09 2.68c.21.43.59 0 .41-.32a18.28 18.28 0 01-1.54-4.45c0-1.13.1-2.27.19-3.4a32.38 32.38 0 001.16-6.11c.06-4.43-1.28-8.78-.9-13.22.3-3.41 1.63-6.45 1.42-9.92a36.72 36.72 0 00-.87-5.49c.13.12.29.14.28-.13a79.18 79.18 0 00-.48-12c-.07-.43-.14-.86-.22-1.29-.16-3.17-.54-6.34-.92-9.51.19-2.25.53-4.48.68-6.72.28-4.23.26-8.5.19-12.73 0-1.8-.19-3.62-.37-5.43.11-1.25.25-2.51.39-3.76l.19-.51a.55.55 0 00-.09-.41c.12-1.09.26-2.18.4-3.27.7-.62.48-.35 1-1.38.1-.2 0-.7-.29-.63l.11-.25a.47.47 0 00-.21-.54 8.34 8.34 0 001.75-1.21l.43.16a121 121 0 01-.49 21c-.63 7.16 1.85 13.93 1.32 21C84 64.39 83.14 67.17 83 70c0 .17.31.82.32.46A42.13 42.13 0 0185 62.21s.1-.05.11-.19 0-.24 0-.36a27.27 27.27 0 00.6-3.54c.44-5.06.82-10.13 1.23-15.19a119.35 119.35 0 00.67-12.67c-.1-3.74-1.26-7.34-1.77-11a2.65 2.65 0 012.44 3.26c0 .28.37.74.43.26.13-1.17.16-2.38-.8-3.22a4.85 4.85 0 00-2.16-1 3.91 3.91 0 000 .43l11.73-.1a2.79 2.79 0 001.39-.4l1-.57.61-.36 1.25-.74 1.66-1 8.94-5.28a1.45 1.45 0 000-2.51l-9-5.13-1.79-.9-1.1-.63-.78-.44-1-.56A2.82 2.82 0 0097.29 0L64.8.26c-1.77 0-3.17 1.87-3.09 4.08l.37 9.92c.08 2.1 1.47 3.75 3.16 3.74h13.43a3.52 3.52 0 01-.9.59c-.34.08-.14.75.19.71h.15c-.21.24-.17.26-.37 1a.38.38 0 000 .21l-.14.13a.49.49 0 000 .5c-.6.62-1 1.28-.37 1.71l-.62.94a.48.48 0 00.16.6 11.6 11.6 0 00-.51 2.73c0 .18.28.74.47.39 1.15-2.12 1.2-4.57.9-.8 0 .19.17.5.34.48-.07.31-.14.63-.23.94a.57.57 0 00.06.32 2.85 2.85 0 00-1.19 2.07c0 .22.13.5.36.47h.42c0 .87.06 1.9.09 2.77-.21 1.13-.39 2.27-.53 3.41l-.14.3a.49.49 0 000 .49 34.42 34.42 0 00-.14 5.04c.45 9.56 1.25 19.19 2.41 28.71.15 1.28.3 2.55.43 3.83a30.25 30.25 0 000 9.11c.06.38.08.75.11 1.13a23.54 23.54 0 00-.79 3.08c-.39 2.51-.53 5-1 7.56a15 15 0 000 5.09c.85 4.92.48 9.57 1.22 14.18-.24 2.93-.63 5.85.26 8.67.13.43.59.31.46-.13a15.31 15.31 0 01-.56-4.85 6.3 6.3 0 00.74 2.65 16.42 16.42 0 00.78 2.83c.27.51.35.06.27-.21zm4.57-105.83c.51 3.27 1.52 6.46 1.69 9.82.25 5.06-.39 10.18-.8 15.22-.36 4.46-.69 8.92-1.08 13.38-.06.59-.14 1.17-.24 1.76a47.67 47.67 0 00-.89-7c-.94-5.27-.6-9.87-.1-15.14a95.07 95.07 0 00.08-18 6.7 6.7 0 011.34-.04zm-4.88 1.42L81 20a1.33 1.33 0 000 .19c0 .22 0 .44-.08.66a4 4 0 00-.52.95zm-.93 1a5.57 5.57 0 01.43-.56q-.28 1.53-.63 3.06v-.72c.06-.55.14-1.14.2-1.74zm-.94 4.21l-.35.86.15-1.1m.38 4.32a.67.67 0 000-.18v-.33c0-.11.06-.28.08-.42.1.15.23.24.35 0s.06-.09.09-.14 0 .13 0 .19c-.18.33-.38.71-.56 1.08zm.15 31.93c.34 2.39.66 4.66.92 6.93 0 1.45-.11 2.9-.27 4.34a93.88 93.88 0 01-.8-12.9c.07.55.12 1.09.19 1.63zm.12-22.62c-.14 3.43-.27 6.86-.27 10.31-.06-.7-.11-1.41-.15-2.11 0-1-.08-2-.1-3 .15-1.7.46-3.4.56-5.2zm.63 8.32c-.1 2-.36 4.07-.59 6.11-.06-.54-.11-1.08-.17-1.62q.09-3.13.17-6.23c.09-4.07.3-8.1.61-12.12a133.48 133.48 0 01.02 13.86zm-.81-12.33c.13-.22-.09-.72-.31-.63a.55.55 0 000-.3c0-.5 0-1 .08-1.49a12 12 0 00.92-1.68v.48c-.21 2.48-.36 5-.49 7.46v-1.53c0-.27-.43-.74-.42-.26a10.73 10.73 0 01-.24 2.47c0-1.3 0-2.6.06-3.89.17-.22.31-.46.44-.63zm.12 35.88c-1-7.76-.75-15.59-1.68-23.31a41.45 41.45 0 01-.06-8.76l.1.06c.38.13.38-.58.07-.68a10.72 10.72 0 01.51-1.51v4.89a14 14 0 00-.69 4.5c.13 1.84 1.06 3.73 1.28 5.6a1.64 1.64 0 010 .22 22 22 0 01.1 2.57v1.17c0 1.12-.1 2.24-.17 3.35a.54.54 0 00.17.39 109 109 0 00.88 14.22l-.09.73v.17c-.11-1.2-.23-2.39-.38-3.61zm1.21 1c.17 2 .29 4 .32 6.17-.26-1.17-.52-2.33-.72-3.5.2-.91.33-1.79.44-2.69zm-.17 13.37a12.23 12.23 0 00.53-3.18c0-.41-.51-.54-.52-.06a9.87 9.87 0 01-.19 1.75 25.87 25.87 0 01-.47-6.36v-.36c.21 2.21.38 4.42.43 6.64 0-2.44-.15-4.88-.34-7.34.06-.4.11-.79.18-1.18.18 1.15.39 2.3.64 3.45a26.86 26.86 0 01.33 11.15 32.79 32.79 0 00-.85 5.83c-.06 5.65 1.6 10.89.29 16.57 0 .11-.05.23-.08.35a50.42 50.42 0 00.2-5.16c-.13-4.26-1-8.48-.68-12.75.06-1 .1-1.89.15-2.83a26.78 26.78 0 00.41-5.68c.07-.3.04-.58.01-.86zm-1.88 14.45c-.21-3.14.54-7.61 1-10.82a16.38 16.38 0 01.34-1.61c0 4.09-1.07 7.89-1.17 12.09v1.77c-.07-.47-.13-.96-.17-1.43zm1.24 14.19a31.08 31.08 0 00.06-3.59c0-.76-.1-1.52-.16-2.28v-1.17a15.07 15.07 0 00-.24-2.14 44.79 44.79 0 010-8.74c.13-1 .29-2 .45-2.92a47.85 47.85 0 000 7.76 90.3 90.3 0 01.19 13.25c-.08.33-.15.66-.22 1q-.05-.58-.08-1.17zm0 3.67c.06.24.12.48.19.72 0 .75 0 1.48.09 2.19a8.39 8.39 0 01-.33-2.91z"/>
      <path class="cls-1" d="M80.13 85.84v-.25c.01.09 0 .17 0 .25zM80.12 83.49v1.3c.01-.43.01-.86 0-1.3zM80.12 84.79z"/>
      <path class="cls-1" d="M82.87 125.19c0-.35-.06-.7-.09-1a1.29 1.29 0 00.86.76c1.25.37 2.48-.78 3-1.79.1-.19-.2-.77-.25-.66-.69 1.46-2 2.19-3.17 1.2a4.35 4.35 0 002.49-1.76c.11-.14-.06-.61-.2-.67a3.46 3.46 0 00.53-.49 9.38 9.38 0 011.74-.5c.16 0 0-.74-.2-.71a3.44 3.44 0 00-.84.27c1.89-3.09 2.73-8.84 3.16-10.38.09-.31-.38-.83-.5-.4-.61 2.16-1.16 4.35-1.82 6.49-.62 2-3.87 7.65-4.35 4a.66.66 0 00.29.14c.44.08 1.64-1.15 1.93-1.48a3 3 0 00.59-1.07 72.27 72.27 0 012.93-8c.12-.24-.22-.88-.38-.55a38.77 38.77 0 00-1.84 4.24c-.51 1.43-.76 4.59-2.29 5.26-.7.3-1.08-.06-1.3-.71 0-3.51.82-7.35.89-10.81 0-2.39.09-4.78 0-7.17.15 2.56.33 5.15.39 7.81a1.12 1.12 0 00.06.23 1.3 1.3 0 000 .13 29.93 29.93 0 01-.91 5.07c-.08.32.38.84.5.41a32.3 32.3 0 001-5.25.48.48 0 00-.29-.45c-.19-7.79-1.5-15.25.68-22.94 1.84-6.51.68-13 3.21-19.54a.92.92 0 00-.24-.67c-2.54 6.55-1.4 13.08-3.25 19.63a38.4 38.4 0 00-1.25 11.27c-.05-.9-.11-1.8-.2-2.7-.57-5.62-1.74-11-1.27-16.71a.27.27 0 00.06-.11A7.53 7.53 0 0082 70.9a40.76 40.76 0 01-2-13.18c0-.28-.45-.74-.44-.26a74.86 74.86 0 00.6 8.73c.36 2.72 2.37 6 2 8.66-.1 0-.18.05-.2.23-.62 6.71 1 13.21 1.47 19.87.09 1.39.15 2.78.2 4.18-.59-3.27-2.42-6.28-2.07-9.63 0-.16-.25-.75-.27-.59a8.12 8.12 0 00.11 3.29 31.58 31.58 0 001.1 3c.21.71.38 1.35.51 2a13 13 0 00-2.41-3.63c-.14-.16-.08.51 0 .65 2.23 2.56 2.41 5.54 1.88 8.67 0-.18-.07-.37-.09-.55-.34-2.42.57-5.44-1.83-6.91-.33-.21-.34.51-.08.68 1.94 1.19 1.59 7 1.19 9-.43 2.12-.54 1.73-1.58 3.11a8.6 8.6 0 00-1.28 2.68c-.1.31.35.83.48.41a7.89 7.89 0 011.71-2.75c-1.07 3.78-2.07 7.56-.88 11a3.31 3.31 0 001.56 2.13c.14.39.3.78.49 1.18a1.79 1.79 0 01-.32-.19c-.22-.16-.13.54 0 .66a2 2 0 00.58.29c0 .44.07.87.12 1.3.08.13.37.72.32.26zm0-8.72a23.2 23.2 0 010-3.37 11.87 11.87 0 00-.06-1.22c.22-3 .53-6 .77-9.15a114.12 114.12 0 01-.66 13.74zm-1.4 3.89a15.43 15.43 0 010-4.5c0-.17-.28-.81-.32-.45a15.45 15.45 0 000 4.62c-1.28-1.94-.86-5.91-.58-7.82a37.59 37.59 0 011-4.42 6.17 6.17 0 00.85-1.37 4.09 4.09 0 00.14-2.4 26.16 26.16 0 00.65-3.5 43.45 43.45 0 01-.61 5.6c-.18 1.3-.3 2.59-.4 3.89-.21-.32-.46 0-.31.36a4 4 0 01.25.69 77.39 77.39 0 000 9.87 2.33 2.33 0 01-.62-.57zm1.11 1.45a3.9 3.9 0 00.74-.11 2.58 2.58 0 00.52.08 2.27 2.27 0 001.43-.47c-.64.78-1.61 1.75-2.63 1.65z"/>
      <path class="cls-2" d="M89.44 1l-23.36.19a3.44 3.44 0 00-3.4 3.7c0 3.68.06 7 .06 7S64.79 7.94 65 7.45a13.18 13.18 0 011.82-2.1c.48-.49 2.8-1.13 3.41-1.38s5.8-1.51 5.8-1.51l6.5-.18c.21 0 6.91-1.28 6.91-1.28zM97.6 17l-28.54.11a106.53 106.53 0 0118.33-1c3.61.15 7.06.46 10.21.89z"/>
      <path class="cls-3" d="M10.27 69a6 6 0 001 .08 7.64 7.64 0 001 0 8.69 8.69 0 001.05-.08c.66-.1 1-.39 1.06-.86a.56.56 0 00-.24-.5 5.86 5.86 0 00-.7-.5c-.29-.18-.59-.38-.92-.61a4.45 4.45 0 01-.89-.8 3.56 3.56 0 01-.63-1.1 3.4 3.4 0 01-.14-1.5 4.64 4.64 0 01.56-1.78A5.12 5.12 0 0112.55 60a6.39 6.39 0 011.61-1 7.56 7.56 0 011.9-.55c.34 0 .69-.09 1-.11h1.84l-.42 3.88h-.77a3.87 3.87 0 00-.45.05l-.32.06a1.66 1.66 0 00-.38.11 1 1 0 00-.31.19.41.41 0 00-.16.31c0 .11.07.23.24.37l.65.47c.26.18.55.38.85.62a4.19 4.19 0 01.83.85 4.34 4.34 0 01.58 1.16 3.76 3.76 0 01.12 1.53 5.62 5.62 0 01-.48 1.75 5.27 5.27 0 01-1.09 1.54 6.41 6.41 0 01-1.74 1.18 8.39 8.39 0 01-2.39.71 12.7 12.7 0 01-1.52.16h-1.22a9.47 9.47 0 01-1.12-.07zm1.55 2.21h1.27c.22 0 .45 0 .68-.08A5.67 5.67 0 0015 70.8a4.08 4.08 0 001-.6 3.53 3.53 0 00.81-.91 3 3 0 00.39-1.23 1.86 1.86 0 00-.19-1.1 3.65 3.65 0 00-.69-.91 9.12 9.12 0 00-.94-.79c-.33-.25-.64-.5-.93-.76a3.75 3.75 0 01-.71-.81 1.48 1.48 0 01-.21-.92 1.88 1.88 0 01.62-1.22 3.15 3.15 0 011.65-.66h1.05l.06-.54a1.69 1.69 0 01-.33 0h-.33l-.37.05a4.2 4.2 0 00-2 .81 2.37 2.37 0 00-.93 1.7 1.73 1.73 0 00.2 1 3.48 3.48 0 00.69.87 7.94 7.94 0 00.94.78 10.44 10.44 0 01.94.77 3.64 3.64 0 01.7.84 1.57 1.57 0 01.2 1 2.37 2.37 0 01-.86 1.63 4 4 0 01-2 .81 8.29 8.29 0 01-1.33.11h-.62zM22 61.39l-2.66.42.39-3.63 10.08-1.56-.39 3.63-2.66.41-1.09 10.2-4.75.73zm1.75 8.13l1.07-10 3.04-.52.05-.5-6.74 1-.06.5 3.1-.48-1.07 10zM28.8 63.58a8.3 8.3 0 01.9-2.92 10.39 10.39 0 011.87-2.56 11.16 11.16 0 012.57-1.93 9.33 9.33 0 013-1 7.08 7.08 0 012.88.11 5.31 5.31 0 012.24 1.19 4.94 4.94 0 011.38 2.06 5.93 5.93 0 01.29 2.72 8 8 0 01-.89 2.91 10.52 10.52 0 01-1.87 2.57 11 11 0 01-2.58 1.93 9.2 9.2 0 01-3 1 7.06 7.06 0 01-2.88-.11 5.53 5.53 0 01-2.25-1.19 5 5 0 01-1.36-2.06 6.07 6.07 0 01-.3-2.72zm2-.32a4.37 4.37 0 00.21 2 3.73 3.73 0 001 1.5 3.87 3.87 0 001.64.87 5.09 5.09 0 002.11.08A6.78 6.78 0 0038 67a8.17 8.17 0 001.89-1.41 8 8 0 001.37-1.87 6.17 6.17 0 00.65-2.13 4.36 4.36 0 00-.21-2 3.66 3.66 0 00-1-1.5 3.93 3.93 0 00-1.64-.87 5.1 5.1 0 00-2.11-.08 7 7 0 00-2.2.74 8.23 8.23 0 00-1.88 1.42 7.57 7.57 0 00-1.37 1.87 5.77 5.77 0 00-.66 2.09zm5 3.91a4.39 4.39 0 01-1.8-.07 3.71 3.71 0 01-1.47-.78 3.4 3.4 0 01-.94-1.32 3.9 3.9 0 01-.19-1.8 5.3 5.3 0 01.6-1.94 6.91 6.91 0 011.23-1.68 7 7 0 011.69-1.27 5.83 5.83 0 012-.67 4.44 4.44 0 011.9.07 3.71 3.71 0 011.47.78 3.51 3.51 0 01.91 1.35 4 4 0 01.19 1.79 5.29 5.29 0 01-.59 1.92 7.11 7.11 0 01-1.23 1.68 7 7 0 01-1.69 1.27 5.8 5.8 0 01-2.02.67zm-2.51-4.3a2.34 2.34 0 00.11 1.1 2.12 2.12 0 00.55.82 2.16 2.16 0 00.9.47 2.75 2.75 0 001.15 0 3.85 3.85 0 001.21-.41 4.86 4.86 0 001-.77 4.14 4.14 0 00.74-1 3.07 3.07 0 00.36-1.16 2.48 2.48 0 00-.12-1.1 2 2 0 00-.55-.82 2.06 2.06 0 00-.89-.47 2.79 2.79 0 00-1.16 0 3.71 3.71 0 00-1.2.41 4.62 4.62 0 00-1 .77 4.46 4.46 0 00-.75 1 3.24 3.24 0 00-.29 1.16zM45.87 54.12l3.78-.58 3.42 4.71.56-5.33 4.52-.7-1.47 13.83-3.81.59L49.48 62l-.56 5.3-4.52.7zm1.28 11.78l1-9.58 6.11 8.47.57-.09L56 54.19l-.57.09-1 9.58-6.11-8.48-.57.09L46.59 66zM59.67 52l8.5-1.32-.39 3.63-3.89.6-.16 1.54 3.82-.59-.36 3.44-3.83.59-.17 1.6 4-.63-.38 3.63-8.61 1.33zm5.75 11.08l.06-.5-4.33.67.48-4.54 4.11-.64.06-.49-4.11.63.47-4.48 4.33-.67.05-.49-4.89.75-1.11 10.5zM73.94 49.78l8.5-1.32-.38 3.63-3.9.61-.16 1.53 3.83-.59-.37 3.44-3.83.59-.17 1.6 4.05-.63-.39 3.63-8.65 1.34zm5.76 11.08v-.5l-4.28.64.49-4.54 4.09-.61v-.49L76 56l.48-4.48 4.32-.67.06-.49-4.89.75-1.16 10.51zM83.89 48.24l3.79-.59 3.41 4.72.57-5.37 4.52-.7-1.48 13.87-3.8.59-3.4-4.7-.56 5.31-4.52.7zM85.17 60l1-9.58 6.12 8.48.56-.09L94 48.31l-.56.09-1 9.57-6.15-8.47-.56.09-1.12 10.51zM106.38 49.39a2 2 0 00-.92-.36 3.57 3.57 0 00-1.13 0 3.63 3.63 0 00-1.16.4 3.73 3.73 0 00-1 .74 3.76 3.76 0 00-.69 1 3.59 3.59 0 00-.34 1.2 2.55 2.55 0 00.11 1.12 1.85 1.85 0 00.56.82 2 2 0 00.89.46 3 3 0 001.16 0 3.56 3.56 0 001.37-.51 4.59 4.59 0 001.13-1l-1.3.2.31-2.9 5.56-.86-.49 4.6a11.39 11.39 0 01-1.36 1.73 10.79 10.79 0 01-1.67 1.43 11 11 0 01-1.93 1.06 8.73 8.73 0 01-2.08.58 7 7 0 01-2.89-.1 5.38 5.38 0 01-2.21-1.1 4.9 4.9 0 01-1.38-2 6.1 6.1 0 01-.29-2.77 8.39 8.39 0 01.86-2.91 10.56 10.56 0 011.79-2.55 10.43 10.43 0 012.5-1.91 9 9 0 013-1 8.06 8.06 0 012.08-.1 6.29 6.29 0 011.44.29 3.59 3.59 0 011.11.54zm.5-2.71a3.38 3.38 0 00-.6-.11h-.7a6 6 0 00-.9.07 6.82 6.82 0 00-2.19.73 7.5 7.5 0 00-1.84 1.36 7 7 0 00-1.34 1.84 6.39 6.39 0 00-.65 2.22 4.83 4.83 0 00.2 2.09 3.43 3.43 0 001 1.49 3.89 3.89 0 001.64.81 5.48 5.48 0 002.11.07 6.82 6.82 0 002.78-1.1 8.42 8.42 0 002.18-2.15l.29-2.72-2.3.35v.5l1.73-.27L108 54a7 7 0 01-1.9 1.78 6.33 6.33 0 01-2.43.93 5 5 0 01-1.9 0 3.29 3.29 0 01-1.47-.73 3.08 3.08 0 01-.91-1.34 4.24 4.24 0 01-.19-1.88 5.78 5.78 0 01.59-2A6.23 6.23 0 01101 49a6.42 6.42 0 011.65-1.22 6.36 6.36 0 012-.64 4.72 4.72 0 01.73 0h.59l.55.08zM112.77 43.77l4.88-.75-1.47 13.82-4.89.76zm1.42 11.75L115.31 45l-.56.09-1.12 10.51zM119.17 42.78l3.83-.58 3.41 4.71.57-5.33 4.52-.7-1.5 13.83-3.81.59-3.39-4.7-.57 5.31-4.52.7zm1.27 11.77l1-9.58 6.12 8.48.56-.09 1.12-10.51-.56.09-1 9.57-6.12-8.51-.56.09-1.12 10.51zM133 40.65l8.5-1.32-.42 3.67-3.89.6-.19 1.49 3.83-.59-.37 3.44-3.82.6-.17 1.59 4-.62-.39 3.63-8.65 1.33zm5.75 11.07l.05-.49-4.32.67.48-4.54 4.11-.64.05-.5-4.11.64.48-4.48 4.33-.67.05-.5L135 42l-1.12 10.51zM142.91 39.11l8.5-1.32-.41 3.63-3.9.6-.1 1.54 3.83-.6-.37 3.44-3.83.6-.17 1.59 4-.62-.39 3.63-8.65 1.33zm5.76 11.07l.05-.49-4.32.67.48-4.54 4.11-.64v-.5l-4.11.64.48-4.48 4.33-.67v-.5l-4.89.76-1.12 10.51zM152.86 37.57l5-.77a8.28 8.28 0 012.52 0 4.73 4.73 0 011.94.72 3.37 3.37 0 011.15 1.48 4.68 4.68 0 01.24 2.24 5.65 5.65 0 01-.49 1.81 7.69 7.69 0 01-.8 1.3 6.77 6.77 0 01-1.07 1.07l2.22 4.14-5.41.84-1.79-3.17-.37 3.5-4.61.71zm3.54 8.32a9.61 9.61 0 001.66-.42l1.7 3 .67-.11-1.79-3.14a5.86 5.86 0 002-1.51 4 4 0 00.92-2.23 2.89 2.89 0 00-.2-1.54 2.28 2.28 0 00-.88-1 3.4 3.4 0 00-1.43-.47 6.55 6.55 0 00-1.86.05l-2.33.36-1.13 10.52.56-.09.34-3.15zm-1.72-.22l.68-6.37 1.77-.27a4.3 4.3 0 013 .35 2.12 2.12 0 01.86 2.19 3.71 3.71 0 01-1.37 2.53 6.37 6.37 0 01-3.17 1.29zm2.07-2h.23a3.41 3.41 0 001.44-.57 1.71 1.71 0 00.69-1.27 1 1 0 00-.44-1.1 2.28 2.28 0 00-1.36-.13h-.24z"/>
    </g>
  </g>
</svg>
